<svg xmlns="http://www.w3.org/2000/svg" width="376.389" height="256.027" viewBox="0 0 376.389 256.027">
  <defs>
    <style>
      .cls-1 {
        fill: #fff;
      }

      .cls-2, .cls-8 {
        fill: none;
      }

      .cls-2, .cls-4, .cls-5 {
        stroke: #707070;
      }

      .cls-3, .cls-5 {
        fill: #707070;
      }

      .cls-4 {
        fill: #ffe4c5;
      }

      .cls-6, .cls-7 {
        stroke: none;
      }

      .cls-7 {
        fill: #707070;
      }
    </style>
  </defs>
  <g id="Group_5" data-name="Group 5" transform="translate(-110.722 -273.473)">
    <g id="Group_3" data-name="Group 3" transform="translate(110.722 273.473)">
      <g id="Union_2" data-name="Union 2" class="cls-1">
        <path class="cls-6" d="M 141.3582153320313 255.5272674560547 L 141.3581695556641 255.5272674560547 L 141.3589172363281 255.5272216796875 C 140.5728149414063 255.5275115966797 139.1214599609375 254.7124176025391 136.6716156005859 250.8278656005859 C 134.8704681396484 247.9718627929688 132.7681121826172 243.8188171386719 130.4229736328125 238.4839630126953 C 126.7651138305664 230.1630096435547 122.5580139160156 219.1071624755859 117.9184646606445 205.6235656738281 L 117.8218688964844 205.3428649902344 L 117.529167175293 205.2932586669922 C 103.9186630249023 202.9883575439453 90.94601440429688 199.3946685791016 78.97156524658203 194.6120147705078 C 60.24886703491211 187.132568359375 43.73176574707031 176.7065582275391 29.87921714782715 163.6235198974609 C 23.59291648864746 157.6864624023438 17.85286712646484 151.1842651367188 12.81846618652344 144.2975158691406 C 8.119158744812012 137.8691558837891 3.993853807449341 131.0522613525391 0.5551710724830627 124.0334777832031 C 5.267807483673096 114.1634826660156 11.24587154388428 104.8271255493164 18.32661628723145 96.27881622314453 C 25.99366569519043 87.02271270751953 34.9539680480957 78.7003173828125 44.95866775512695 71.54286193847656 C 55.74026489257813 63.82956314086914 67.83591461181641 57.40276336669922 80.90966796875 52.44101333618164 C 94.98041534423828 47.10081481933594 110.4032135009766 43.3781623840332 126.7495651245117 41.37646484375 L 127.0177688598633 41.34361267089844 L 127.1372680664063 41.10131454467773 C 132.7587738037109 29.70191383361816 137.7005615234375 20.49001502990723 141.8253631591797 13.72146415710449 C 144.3700103759766 9.545864105224609 146.6053161621094 6.306214332580566 148.4691162109375 4.092514038085938 C 150.9690704345703 1.123314142227173 152.3722229003906 0.5000141859054565 153.1090698242188 0.5000141859054565 C 153.1648712158203 0.5000141859054565 153.2174224853516 0.5034642219543457 153.2698211669922 0.5105642080307007 C 154.2788238525391 0.6469641923904419 155.9572143554688 2.431414127349854 155.8614654541016 12.84981441497803 C 155.8022613525391 19.28776359558105 155.0776214599609 28.10036468505859 153.7075653076172 39.04286575317383 L 153.6364593505859 39.61081314086914 L 154.2088165283203 39.60491561889648 C 155.1405639648438 39.59541320800781 156.0802154541016 39.5905647277832 157.0016174316406 39.5905647277832 C 165.5232238769531 39.5905647277832 174.2782135009766 40.42856597900391 183.0233612060547 42.08126449584961 C 191.1292724609375 43.61311340332031 199.4237670898438 45.88201522827148 207.6764678955078 48.82491302490234 C 222.1460723876953 53.98476409912109 236.8820648193359 61.34211349487305 251.4751129150391 70.69256591796875 C 277.8230285644531 87.57486724853516 297.6858215332031 107.0619659423828 307.1807556152344 117.1754150390625 L 307.5670776367188 117.5869140625 L 307.928955078125 117.1537628173828 L 375.8887023925781 35.81478881835938 L 375.8887023925781 212.2577362060547 L 307.928955078125 130.9187622070313 L 307.5670776367188 130.4856567382813 L 307.1807556152344 130.8971099853516 C 297.6847534179688 141.0106658935547 277.820556640625 160.4976654052734 251.4751129150391 177.3781585693359 C 236.8820190429688 186.728515625 222.1460113525391 194.0857696533203 207.6764678955078 199.2455139160156 C 199.4237670898438 202.1884155273438 191.1292724609375 204.4573211669922 183.0233612060547 205.9892120361328 C 174.2782135009766 207.6418609619141 165.5232238769531 208.4798583984375 157.0016174316406 208.4798583984375 C 153.5176239013672 208.4798583984375 150.0203094482422 208.4102630615234 146.6070098876953 208.2730712890625 L 146.0739593505859 208.2516174316406 L 146.0870666503906 208.7849578857422 C 146.3701171875 220.3013153076172 146.2895202636719 229.9491119384766 145.8475189208984 237.4604644775391 C 145.5730133056641 242.126220703125 145.1552124023438 245.9599609375 144.6058654785156 248.8552093505859 C 144.0027618408203 252.0335083007813 143.2437133789063 254.1119079589844 142.3498229980469 255.03271484375 C 142.0285186767578 255.3637084960938 141.7064208984375 255.5254669189453 141.3651123046875 255.5271606445313 L 141.3616638183594 255.5271606445313 L 141.3582153320313 255.5272674560547 Z"/>
        <path class="cls-7" d="M 141.3567047119141 255.0272064208984 L 141.3626098632813 255.0271606445313 C 141.4361114501953 255.0268096923828 141.6598205566406 255.0256652832031 141.9910736083984 254.6844635009766 C 142.5579681396484 254.1005096435547 143.3865661621094 252.5990142822266 144.1146240234375 248.7620086669922 C 144.6600189208984 245.8877716064453 145.0751190185547 242.0755157470703 145.3484191894531 237.4311218261719 C 145.7895660400391 229.9335632324219 145.8699188232422 220.2997589111328 145.5872192382813 208.7972106933594 L 145.5610198974609 207.7306213378906 L 146.6270599365234 207.7734680175781 C 150.0337677001953 207.9104156494141 153.5242614746094 207.9798583984375 157.0016174316406 207.9798583984375 C 165.4921722412109 207.9798583984375 174.2159118652344 207.1448211669922 182.9305114746094 205.4978637695313 C 191.0109710693359 203.9708099365234 199.2802124023438 201.7087707519531 207.5085601806641 198.7745666503906 C 221.9424133300781 193.6275177001953 236.6441650390625 186.287109375 251.2054138183594 176.9571685791016 C 277.50537109375 160.1058197021484 297.3361206054688 140.6515197753906 306.8162536621094 130.5548706054688 L 307.5889282226563 129.7319641113281 L 308.3126525878906 130.5982208251953 L 375.3887023925781 210.8795166015625 L 375.3887023925781 37.19301223754883 L 308.3126525878906 117.4743118286133 L 307.5888671875 118.3406143188477 L 306.8162231445313 117.5176162719727 C 297.337158203125 107.4211120605469 277.5077514648438 87.96671295166016 251.2053680419922 71.11351776123047 C 236.6442108154297 61.78351593017578 221.9424591064453 54.44301605224609 207.5085601806641 49.29586410522461 C 199.2802124023438 46.36166381835938 191.0109710693359 44.09961318969727 182.9305114746094 42.57256317138672 C 174.2159118652344 40.92561340332031 165.4921722412109 40.0905647277832 157.0016174316406 40.0905647277832 C 156.0819091796875 40.0905647277832 155.1440124511719 40.09541320800781 154.2139739990234 40.10491561889648 L 153.0692596435547 40.11661529541016 L 153.2114715576172 38.980712890625 C 154.5791168212891 28.05726432800293 155.3024597167969 19.26401329040527 155.3614654541016 12.84521389007568 C 155.3966217041016 9.021614074707031 155.1934661865234 6.042514324188232 154.7576141357422 3.990714311599731 C 154.3776702880859 2.202064275741577 153.7964630126953 1.08631420135498 153.2031097412109 1.006064176559448 C 153.1728210449219 1.00201416015625 153.1420593261719 1.000014185905457 153.1090698242188 1.000014185905457 C 152.693359375 1.000014185905457 151.4463653564453 1.332714200019836 148.8516235351563 4.41456413269043 C 147.0041198730469 6.608814239501953 144.7838134765625 9.827664375305176 142.2523193359375 13.98166465759277 C 138.1352233886719 20.73756408691406 133.2006683349609 29.93636512756348 127.5856628417969 41.32246398925781 L 127.3467178344727 41.80706405639648 L 126.8103637695313 41.87276458740234 C 110.5038146972656 43.86961364746094 95.12026977539063 47.58256530761719 81.08706665039063 52.90846252441406 C 68.05361938476563 57.85496520996094 55.99616622924805 64.26131439208984 45.24956512451172 71.94951629638672 C 35.27991485595703 79.08191680908203 26.35126686096191 87.37481689453125 18.71166610717773 96.59776306152344 C 11.70960998535156 105.0510940551758 5.78948450088501 114.2787399291992 1.110847353935242 124.0306396484375 C 4.515314102172852 130.947021484375 8.588295936584473 137.6636199951172 13.22211647033691 144.0024108886719 C 18.23856735229492 150.8646087646484 23.95831680297852 157.3438110351563 30.2225170135498 163.260009765625 C 44.02911758422852 176.2996215820313 60.49306488037109 186.6917114257813 79.15701293945313 194.1477203369141 C 91.09866333007813 198.9172210693359 104.0370178222656 202.5012664794922 117.6126174926758 204.8003082275391 L 118.1980667114258 204.8994598388672 L 118.3912658691406 205.4609069824219 C 123.0263137817383 218.9315185546875 127.2283630371094 229.974365234375 130.8807220458984 238.2827606201172 C 133.2159118652344 243.5950164794922 135.3065643310547 247.7260589599609 137.0945129394531 250.5611114501953 C 139.7030487060547 254.6973114013672 141.0139312744141 255.0260009765625 141.3567047119141 255.0272064208984 M 141.3591156005859 256.0272216796875 C 135.7235107421875 256.0292663574219 124.5822143554688 226.5267639160156 117.4456634521484 205.7862701416016 C 103.2936172485352 203.3896179199219 90.42801666259766 199.7261657714844 78.78611755371094 195.0763702392578 C 38.98596572875977 179.1768188476563 13.51436614990234 151.7510681152344 1.645507836656179e-05 124.036262512207 C 18.31176567077637 85.50296783447266 58.57256698608398 49.22146606445313 126.6888198852539 40.88016510009766 C 135.8662719726563 22.27001571655273 147.93017578125 2.825927731464617e-05 153.1090698242188 2.825927731464617e-05 C 153.1867218017578 2.825927731464617e-05 153.2622985839844 0.004989233333617449 153.3368225097656 0.01506419666111469 C 157.9300231933594 0.6360641717910767 156.520263671875 20.60236358642578 154.2037200927734 39.10496520996094 C 155.1317596435547 39.09546279907227 156.0649108886719 39.0905647277832 157.0016174316406 39.0905647277832 C 228.1787719726563 39.0905647277832 288.2919616699219 96.32566070556641 307.5452575683594 116.8331604003906 L 376.3887023925781 34.43651580810547 L 376.3887023925781 213.6360168457031 L 307.5452575683594 131.2393646240234 C 288.2919616699219 151.7448120117188 228.1787719726563 208.9798583984375 157.0016174316406 208.9798583984375 C 153.4679107666016 208.9798583984375 149.9972686767578 208.9097595214844 146.5869140625 208.7726593017578 C 147.0906219482422 229.2677612304688 146.7211608886719 256 141.3676605224609 256.0271606445313 C 141.3650207519531 256.0272216796875 141.3617706298828 256.0272216796875 141.3591156005859 256.0272216796875 Z M 57.90046691894531 223.7630615234375 C 57.90046691894531 223.7630615234375 59.29986572265625 221.8409118652344 61.38191604614258 218.9811096191406 C 58.91511535644531 222.3694610595703 57.9013671875 223.7621154785156 57.90046691894531 223.7630615234375 Z M 61.38191604614258 218.9811096191406 C 61.39636611938477 218.9612121582031 61.41121673583984 218.9408111572266 61.42576599121094 218.9208068847656 C 61.41096496582031 218.941162109375 61.3966178894043 218.9609069824219 61.38191604614258 218.9811096191406 Z M 61.42576599121094 218.9208068847656 C 61.45213317871094 218.8845977783203 61.47859191894531 218.8482666015625 61.50523376464844 218.8116760253906 C 61.47869110107422 218.8481292724609 61.45232391357422 218.8843536376953 61.42576599121094 218.9208068847656 Z M 61.50523376464844 218.8116760253906 C 61.52141952514648 218.7894439697266 61.53766632080078 218.7671356201172 61.5540657043457 218.7446136474609 C 61.53771209716797 218.7670745849609 61.52143859863281 218.7894287109375 61.50523376464844 218.8116760253906 Z M 61.5540657043457 218.7446136474609 C 61.55729293823242 218.7401580810547 61.56069183349609 218.7355041503906 61.56409072875977 218.7308502197266 C 61.56075286865234 218.7354278564453 61.55741500854492 218.7400207519531 61.5540657043457 218.7446136474609 Z M 61.56409072875977 218.7308502197266 C 61.56742858886719 218.7262573242188 61.57076644897461 218.7216949462891 61.57411575317383 218.7171173095703 C 61.57089233398438 218.7215423583984 61.56748962402344 218.7261962890625 61.56409072875977 218.7308502197266 Z M 61.57411575317383 218.7171173095703 C 61.59811782836914 218.6841125488281 61.6217155456543 218.6516571044922 61.64591598510742 218.6184692382813 C 61.62201690673828 218.6513214111328 61.5977668762207 218.6846160888672 61.57411575317383 218.7171173095703 Z M 61.64591598510742 218.6184692382813 C 61.65719985961914 218.6029663085938 61.66852951049805 218.58740234375 61.67988586425781 218.5717926025391 C 61.66854095458984 218.5873870849609 61.65722274780273 218.6029357910156 61.64591598510742 218.6184692382813 Z M 61.67988586425781 218.5717926025391 C 61.70681381225586 218.5348052978516 61.73386764526367 218.4976348876953 61.76116561889648 218.4601593017578 C 61.73403167724609 218.4974365234375 61.70687484741211 218.5347290039063 61.67988586425781 218.5717926025391 Z M 61.76116561889648 218.4601593017578 C 61.85041809082031 218.3375701904297 61.94001770019531 218.2144622802734 62.03141784667969 218.0889129638672 C 61.93956756591797 218.2151184082031 61.84961700439453 218.3386688232422 61.76116561889648 218.4601593017578 Z M 62.03141784667969 218.0889129638672 C 62.07376480102539 218.03076171875 62.11701583862305 217.9713134765625 62.15981674194336 217.9125671386719 C 62.11651611328125 217.9720153808594 62.07396697998047 218.030517578125 62.03141784667969 218.0889129638672 Z M 62.15981674194336 217.9125671386719 C 62.1685676574707 217.9005584716797 62.17756652832031 217.8881683349609 62.18636703491211 217.8761138916016 C 62.17751693725586 217.8882598876953 62.16861724853516 217.9005126953125 62.15981674194336 217.9125671386719 Z M 62.18636703491211 217.8761138916016 C 62.19424057006836 217.8652954101563 62.20231628417969 217.8542022705078 62.21040344238281 217.8431091308594 C 62.202392578125 217.8540954589844 62.19439315795898 217.8650817871094 62.18636703491211 217.8761138916016 Z M 62.21040344238281 217.8431091308594 C 62.21841812133789 217.8321075439453 62.2264404296875 217.8210906982422 62.23451614379883 217.8100128173828 C 62.22659301757813 217.8208923339844 62.21849060058594 217.8320007324219 62.21040344238281 217.8431091308594 Z M 62.23451614379883 217.8100128173828 C 62.24426651000977 217.7965698242188 62.25396728515625 217.7832641601563 62.26371765136719 217.7698211669922 C 62.25366592407227 217.7837066650391 62.24456787109375 217.7961578369141 62.23451614379883 217.8100128173828 Z M 62.26371765136719 217.7698211669922 C 62.28726577758789 217.7375183105469 62.31006622314453 217.7061614990234 62.33371734619141 217.6737213134766 C 62.31061553955078 217.7054595947266 62.28666687011719 217.7383575439453 62.26371765136719 217.7698211669922 Z M 62.33371734619141 217.6737213134766 C 62.3381462097168 217.6676177978516 62.34272384643555 217.6613159179688 62.34734725952148 217.6549682617188 C 62.34284591674805 217.6611480712891 62.33832550048828 217.6673736572266 62.33371734619141 217.6737213134766 Z M 62.34734725952148 217.6549682617188 C 62.35543823242188 217.6438446044922 62.36346054077148 217.6328277587891 62.3718147277832 217.6213684082031 C 62.36391448974609 217.6322479248047 62.35556030273438 217.6436920166016 62.34734725952148 217.6549682617188 Z M 62.3718147277832 217.6213684082031 C 62.38241577148438 217.6067657470703 62.39326477050781 217.5919189453125 62.40391540527344 217.5772705078125 C 62.39306640625 217.5922088623047 62.38266754150391 217.6064605712891 62.3718147277832 217.6213684082031 Z M 62.40391540527344 217.5772705078125 C 62.41634750366211 217.5601959228516 62.42889404296875 217.54296875 62.44146728515625 217.5256958007813 C 62.4289436340332 217.5428924560547 62.41644668579102 217.5600738525391 62.40391540527344 217.5772705078125 Z M 62.44146728515625 217.5256958007813 C 62.45737838745117 217.5038452148438 62.47332763671875 217.4819488525391 62.48941802978516 217.4598693847656 C 62.4735107421875 217.4817047119141 62.45746994018555 217.5037231445313 62.44146728515625 217.5256958007813 Z M 62.48941802978516 217.4598693847656 C 62.51911163330078 217.4190521240234 62.54959487915039 217.3772125244141 62.57980346679688 217.3357238769531 C 62.54948806762695 217.3773651123047 62.51979064941406 217.4181518554688 62.48941802978516 217.4598693847656 Z M 62.57980346679688 217.3357238769531 C 62.58531951904297 217.3281555175781 62.59085083007813 217.320556640625 62.59641647338867 217.3129119873047 C 62.59089279174805 217.3204956054688 62.58535385131836 217.3281097412109 62.57980346679688 217.3357238769531 Z M 62.59641647338867 217.3129119873047 C 62.6154670715332 217.2867126464844 62.63496780395508 217.2599182128906 62.65411758422852 217.2336120605469 C 62.63456726074219 217.2604675292969 62.61581802368164 217.2862701416016 62.59641647338867 217.3129119873047 Z M 62.65411758422852 217.2336120605469 C 64.57366943359375 214.5969085693359 67.14506530761719 211.0649566650391 70.49121856689453 206.4690704345703 C 67.80971527099609 210.1521606445313 64.96186828613281 214.0638580322266 62.65411758422852 217.2336120605469 Z M 70.49121856689453 206.4690704345703 C 70.49709320068359 206.4610137939453 70.50277709960938 206.4532012939453 70.50846099853516 206.4453887939453 C 70.50269317626953 206.4533233642578 70.49691772460938 206.4612579345703 70.49121856689453 206.4690704345703 Z M 70.50846099853516 206.4453887939453 C 70.51422882080078 206.4374542236328 70.51998901367188 206.4295196533203 70.52566528320313 206.4217071533203 C 70.51981353759766 206.4297637939453 70.51414489746094 206.4375762939453 70.50846099853516 206.4453887939453 Z M 70.52566528320313 206.4217071533203 C 70.59291076660156 206.3293609619141 70.66035461425781 206.2367401123047 70.72768402099609 206.1442718505859 C 70.66010284423828 206.2371063232422 70.59282684326172 206.3294982910156 70.52566528320313 206.4217071533203 Z M 70.72768402099609 206.1442718505859 C 70.80319976806641 206.0405578613281 70.87909698486328 205.9363098144531 70.95561981201172 205.8312072753906 C 70.88004302978516 205.9350433349609 70.80393981933594 206.0395660400391 70.72768402099609 206.1442718505859 Z M 70.95561981201172 205.8312072753906 C 71.00846862792969 205.7586212158203 71.06111907958984 205.6863098144531 71.11381530761719 205.6139068603516 C 71.06126403808594 205.6861114501953 71.00782012939453 205.759521484375 70.95561981201172 205.8312072753906 Z M 71.11381530761719 205.6139068603516 C 71.11809539794922 205.6080322265625 71.12236785888672 205.6021728515625 71.12664794921875 205.5962982177734 C 71.12236785888672 205.6021728515625 71.11808776855469 205.6080474853516 71.11381530761719 205.6139068603516 Z M 71.12664794921875 205.5962982177734 C 71.25673675537109 205.4176330566406 71.38711547851563 205.2385406494141 71.51947021484375 205.0567626953125 C 71.38890075683594 205.2360992431641 71.25838470458984 205.4153747558594 71.12664794921875 205.5962982177734 Z M 71.51947021484375 205.0567626953125 C 71.56306457519531 204.9968566894531 71.60636901855469 204.9373626708984 71.64986419677734 204.8776702880859 C 71.60651397705078 204.9371643066406 71.56256866455078 204.99755859375 71.51947021484375 205.0567626953125 Z M 71.64986419677734 204.8776702880859 C 71.66798400878906 204.8527526855469 71.68558502197266 204.82861328125 71.70333099365234 204.8042297363281 C 71.68550109863281 204.8287353515625 71.66761779785156 204.8533020019531 71.64986419677734 204.8776702880859 Z M 71.70333099365234 204.8042297363281 C 71.71422576904297 204.7892456054688 71.72510528564453 204.7742919921875 71.73591613769531 204.7594146728516 C 71.72489929199219 204.7745819091797 71.71408843994141 204.7894439697266 71.70333099365234 204.8042297363281 Z M 71.73591613769531 204.7594146728516 C 71.73854064941406 204.7558135986328 71.74118041992188 204.752197265625 71.74382019042969 204.7485961914063 C 71.74115753173828 204.7522430419922 71.73849487304688 204.7558898925781 71.73591613769531 204.7594146728516 Z M 71.74382019042969 204.7485961914063 C 71.74647521972656 204.7449340820313 71.74913787841797 204.7412872314453 71.75171661376953 204.7377624511719 C 71.74909210205078 204.7413635253906 71.74645233154297 204.7449798583984 71.74382019042969 204.7485961914063 Z M 71.75171661376953 204.7377624511719 C 71.76311492919922 204.7221069335938 71.77336883544922 204.7080078125 71.78476715087891 204.6923675537109 C 71.77426910400391 204.7068176269531 71.76221466064453 204.7233581542969 71.75171661376953 204.7377624511719 Z M 71.78476715087891 204.6923675537109 C 71.96876525878906 204.4396209716797 72.15251922607422 204.1872711181641 72.33346557617188 203.938720703125 C 72.14826965332031 204.193115234375 71.96586608886719 204.4436187744141 71.78476715087891 204.6923675537109 Z M 72.33346557617188 203.938720703125 C 72.33721923828125 203.9335327148438 72.34174346923828 203.9273529052734 72.34577941894531 203.9218292236328 C 72.34165954589844 203.9274749755859 72.33763122558594 203.9330291748047 72.33346557617188 203.938720703125 Z M 72.34577941894531 203.9218292236328 C 72.34664916992188 203.9206237792969 72.34752655029297 203.9194183349609 72.34841918945313 203.918212890625 C 72.34757232666016 203.9193725585938 72.34668731689453 203.9205780029297 72.34577941894531 203.9218292236328 Z M 72.34841918945313 203.918212890625 C 72.38268280029297 203.8711395263672 72.41645812988281 203.8247528076172 72.45033264160156 203.7782440185547 C 72.41651153564453 203.82470703125 72.38263702392578 203.8712310791016 72.34841918945313 203.918212890625 Z M 72.45033264160156 203.7782440185547 C 72.48128509521484 203.7357177734375 72.51220703125 203.6932373046875 72.54331970214844 203.6505126953125 C 72.51194763183594 203.6936187744141 72.48110198974609 203.7359771728516 72.45033264160156 203.7782440185547 Z M 72.54331970214844 203.6505126953125 C 72.55101776123047 203.6399078369141 72.55881500244141 203.6292114257813 72.56656646728516 203.6185607910156 C 72.55936431884766 203.6284637451172 72.55051422119141 203.6406097412109 72.54331970214844 203.6505126953125 Z M 72.56656646728516 203.6185607910156 C 75.40731811523438 199.7167663574219 77.80766296386719 196.4200134277344 78.78611755371094 195.0763702392578 C 76.49556732177734 198.2223205566406 74.42711639404297 201.0631713867188 72.56656646728516 203.6185607910156 Z"/>
      </g>
      <path id="Path_8" data-name="Path 8" class="cls-2" d="M0,0S34.956,57.2,0,136.648" transform="translate(81.621 55.418)"/>
      <circle id="Ellipse_8" data-name="Ellipse 8" class="cls-3" cx="10.473" cy="10.473" r="10.473" transform="translate(59.241 80.981)"/>
    </g>
    <path id="Path_11" data-name="Path 11" class="cls-4" d="M161.124,416.52c7.013-22.077,17.466-45.962,17.006-83.651,16.024-5.948,25.6-10.853,59.774-5.949s46.606,13.311,88.813,9.578c23.04-4.674,47.7-5.157,59.162,2.805,8.733,8.733-2.721,19.047-2.721,19.047s-79.828,83.2-162.7,71.186C188.209,425.472,180.629,423.879,161.124,416.52Z" transform="translate(29.525 51.197)"/>
    <g id="Ellipse_17" data-name="Ellipse 17" class="cls-5" transform="matrix(0.966, -0.259, 0.259, 0.966, 222.701, 454.935)">
      <ellipse class="cls-6" cx="14.232" cy="14.232" rx="14.232" ry="14.232"/>
      <ellipse class="cls-8" cx="14.232" cy="14.232" rx="13.732" ry="13.732"/>
    </g>
    <g id="Ellipse_19" data-name="Ellipse 19" class="cls-5" transform="matrix(0.966, -0.259, 0.259, 0.966, 253.816, 457.914)">
      <ellipse class="cls-6" cx="14.232" cy="14.232" rx="14.232" ry="14.232"/>
      <ellipse class="cls-8" cx="14.232" cy="14.232" rx="13.732" ry="13.732"/>
    </g>
    <g id="Ellipse_18" data-name="Ellipse 18" class="cls-5" transform="matrix(0.966, -0.259, 0.259, 0.966, 192.739, 447.648)">
      <ellipse class="cls-6" cx="14.232" cy="14.232" rx="14.232" ry="14.232"/>
      <ellipse class="cls-8" cx="14.232" cy="14.232" rx="13.732" ry="13.732"/>
    </g>
    <g id="Ellipse_21" data-name="Ellipse 21" class="cls-5" transform="matrix(0.966, -0.259, 0.259, 0.966, 283.557, 453.575)">
      <ellipse class="cls-6" cx="14.232" cy="14.232" rx="14.232" ry="14.232"/>
      <ellipse class="cls-8" cx="14.232" cy="14.232" rx="13.732" ry="13.732"/>
    </g>
    <g id="Ellipse_22" data-name="Ellipse 22" class="cls-5" transform="matrix(0.966, -0.259, 0.259, 0.966, 312.008, 444.331)">
      <ellipse class="cls-6" cx="14.232" cy="14.232" rx="14.232" ry="14.232"/>
      <ellipse class="cls-8" cx="14.232" cy="14.232" rx="13.732" ry="13.732"/>
    </g>
    <g id="Ellipse_26" data-name="Ellipse 26" class="cls-5" transform="matrix(0.966, -0.259, 0.259, 0.966, 335.9, 428.607)">
      <ellipse class="cls-6" cx="14.232" cy="14.232" rx="14.232" ry="14.232"/>
      <ellipse class="cls-8" cx="14.232" cy="14.232" rx="13.732" ry="13.732"/>
    </g>
    <g id="Ellipse_20" data-name="Ellipse 20" class="cls-5" transform="matrix(0.966, -0.259, 0.259, 0.966, 213.406, 428.607)">
      <ellipse class="cls-6" cx="14.232" cy="14.232" rx="14.232" ry="14.232"/>
      <ellipse class="cls-8" cx="14.232" cy="14.232" rx="13.732" ry="13.732"/>
    </g>
    <g id="Ellipse_23" data-name="Ellipse 23" class="cls-5" transform="matrix(0.966, -0.259, 0.259, 0.966, 240.711, 430.313)">
      <ellipse class="cls-6" cx="14.232" cy="14.232" rx="14.232" ry="14.232"/>
      <ellipse class="cls-8" cx="14.232" cy="14.232" rx="13.732" ry="13.732"/>
    </g>
    <g id="Ellipse_24" data-name="Ellipse 24" class="cls-5" transform="matrix(0.966, -0.259, 0.259, 0.966, 267.833, 433.631)">
      <ellipse class="cls-6" cx="14.232" cy="14.232" rx="14.232" ry="14.232"/>
      <ellipse class="cls-8" cx="14.232" cy="14.232" rx="13.732" ry="13.732"/>
    </g>
    <g id="Ellipse_25" data-name="Ellipse 25" class="cls-5" transform="matrix(0.966, -0.259, 0.259, 0.966, 293.431, 425.098)">
      <ellipse class="cls-6" cx="14.232" cy="14.232" rx="14.232" ry="14.232"/>
      <ellipse class="cls-8" cx="14.232" cy="14.232" rx="13.732" ry="13.732"/>
    </g>
  </g>
</svg>
