<svg xmlns="http://www.w3.org/2000/svg" width="198.404" height="150" viewBox="0 0 198.404 150">
  <g id="Group_8" data-name="Group 8" transform="translate(281.596 -485.82)">
    <g id="Group_7" data-name="Group 7" transform="translate(-93.231 -91.926)">
      <g id="Union_2" data-name="Union 2" transform="translate(-188.365 577.746)" fill="#fff">
        <path d="M 86.57578277587891 148.5001373291016 C 86.22080230712891 148.4997711181641 85.18067169189453 148.3000030517578 83.17219543457031 146.4646606445312 C 81.670166015625 145.0921325683594 79.91103363037109 143.0676116943359 77.94358825683594 140.4473114013672 C 74.72679901123047 136.1630859375 70.98014068603516 130.3378753662109 66.80769348144531 123.1334991455078 L 66.46701049804688 122.5452651977539 L 65.80008697509766 122.4136352539062 C 57.55516815185547 120.7865829467773 49.75358963012695 118.2144241333008 42.61203765869141 114.7686080932617 C 35.99535369873047 111.5760269165039 29.84761619567871 107.5881881713867 24.33956336975098 102.9158172607422 C 19.24129867553711 98.59105682373047 14.64643096923828 93.64500427246094 10.68258857727051 88.21500396728516 C 7.133943557739258 83.35377502441406 4.092816829681396 78.11190795898438 1.637168884277344 72.62481689453125 C 4.335943698883057 66.43904876708984 7.752904891967773 60.60302352905273 11.79922008514404 55.26981735229492 C 16.2983512878418 49.33984375 21.56887817382812 44.04763031005859 27.46445655822754 39.54021072387695 C 33.83577346801758 34.6690788269043 40.99324798583984 30.67594718933105 48.738037109375 27.67171096801758 C 57.10506439208984 24.42613220214844 66.28666687011719 22.28715896606445 76.02780151367188 21.31423759460449 L 76.63722229003906 21.25336837768555 L 77.02987670898438 20.7833423614502 C 81.77961730957031 15.09776401519775 85.92227172851562 10.56784248352051 89.34275054931641 7.319447994232178 C 94.87337493896484 2.067053318023682 97.14258575439453 1.500000596046448 97.86151123046875 1.500000596046448 C 97.89527130126953 1.500000596046448 97.92648315429688 1.501237511634827 97.95693206787109 1.503737449645996 C 98.13059234619141 1.518053293228149 98.32187652587891 1.571369051933289 98.54376983642578 1.862026929855347 C 99.21961212158203 2.747263669967651 100.5200881958008 6.261948108673096 98.00537872314453 19.7457103729248 L 97.72142791748047 21.26828956604004 L 99.25229644775391 21.50334358215332 C 112.7224578857422 23.57160568237305 126.6453552246094 29.59426307678223 140.6342468261719 39.40402603149414 C 152.7157440185547 47.87623596191406 162.42919921875 57.51563262939453 168.4503021240234 64.11021423339844 L 169.7918243408203 65.57949829101562 L 170.8352203369141 63.88547515869141 L 196.9044036865234 21.56022834777832 L 196.9044036865234 123.7048034667969 L 170.8352203369141 81.37955474853516 L 169.7918548583984 79.68557739257812 L 168.4503326416016 81.15476226806641 C 161.7811889648438 88.45865631103516 151.0261993408203 99.02565765380859 137.6625366210938 107.889030456543 C 121.9904327392578 118.2834777832031 106.5096435546875 123.8758163452148 91.65022277832031 124.5107345581055 L 90.18224334716797 124.5734481811523 L 90.21461486816406 126.0423965454102 C 90.33621978759766 131.5631103515625 90.19180297851562 136.2089691162109 89.78540802001953 139.8509521484375 C 89.15145874023438 145.5319519042969 88.01029968261719 147.4534759521484 87.38648223876953 148.0932312011719 C 87.03598022460938 148.4526824951172 86.77172088623047 148.4994964599609 86.58064270019531 148.5001068115234 L 86.57578277587891 148.5001373291016 Z" stroke="none"/>
        <path d="M 86.40449523925781 146.9385986328125 C 86.74683380126953 146.5013427734375 87.65623474121094 144.9373474121094 88.23422241210938 140.2020721435547 C 88.67935943603516 136.5551300048828 88.84111022949219 131.80224609375 88.71494293212891 126.0754623413086 L 88.65022277832031 123.1375732421875 L 91.58616638183594 123.0121002197266 C 106.1688079833984 122.3890228271484 121.392219543457 116.8802947998047 136.8334655761719 106.6389923095703 C 150.0698394775391 97.86004638671875 160.7303619384766 87.38496398925781 167.3426361083984 80.14335632324219 L 170.025634765625 77.20496368408203 L 195.4043884277344 118.4091873168945 L 195.4043884277344 26.8558235168457 L 170.0255889892578 68.06015777587891 L 167.3425598144531 65.12160491943359 C 161.3722534179688 58.58265686035156 151.7427978515625 49.02599334716797 139.7730560302734 40.63216018676758 C 125.9746398925781 30.95596313476562 112.2648849487305 25.0189094543457 99.02466583251953 22.98596382141113 L 95.96291351318359 22.51585388183594 L 96.53083038330078 19.4706859588623 C 97.37755584716797 14.93052005767822 97.86069488525391 11.1422700881958 97.96680450439453 8.211186408996582 C 98.08115386962891 5.052440166473389 97.72312164306641 3.637343883514404 97.50521850585938 3.081591844558716 C 96.73536682128906 3.331830739974976 94.63767242431641 4.348525047302246 90.30127716064453 8.477908134460449 C 86.93663787841797 11.68190860748291 82.85880279541016 16.14560317993164 78.18105316162109 21.74501991271973 L 77.39572143554688 22.6850757598877 L 76.17686462402344 22.80679702758789 C 66.57050323486328 23.76626968383789 57.52124786376953 25.87357521057129 49.28049850463867 29.07018661499023 C 41.66775131225586 32.02318572998047 34.63430404663086 35.94674301147461 28.37552833557129 40.73185348510742 C 22.58694458007812 45.15746307373047 17.41191673278809 50.35379791259766 12.99422168731689 56.17646408081055 C 9.152420997619629 61.24008941650391 5.88809061050415 66.76551055908203 3.279930830001831 72.61708831787109 C 5.643721580505371 77.78875732421875 8.538042068481445 82.73316192626953 11.89413833618164 87.33060455322266 C 15.78816604614258 92.66499328613281 20.30188941955566 97.52377319335938 25.30988883972168 101.7719345092773 C 36.64780426025391 111.3896560668945 50.36838912963867 117.8393783569336 66.09049987792969 120.9419937133789 L 67.42433166503906 121.2052154541016 L 68.10572052001953 122.3817443847656 C 72.13816833496094 129.3444061279297 75.76808166503906 135.0075988769531 78.89463806152344 139.2140502929688 C 80.77408599853516 141.7426300048828 82.45358276367188 143.7161560058594 83.88652801513672 145.0797729492188 C 85.24977111816406 146.3770599365234 86.05683898925781 146.8020172119141 86.40449523925781 146.9385986328125 M 86.57727813720703 150.0001373291016 C 81.64266967773438 150.0012359619141 72.31258392333984 135.6315765380859 65.50966644287109 123.8852386474609 C 30.68663787841797 117.0132446289062 9.794750213623047 94.97335052490234 -2.305772568433895e-07 72.63252258300781 C 10.73038864135742 47.5189094543457 34.78580474853516 23.92593574523926 75.87872314453125 19.82165908813477 C 84.21511077880859 9.842735290527344 93.82797241210938 -0.3418837487697601 98.08022308349609 0.008797396905720234 C 102.1012191772461 0.3404085040092468 101.332389831543 10.08815860748291 99.47997283935547 20.02071380615234 C 130.6996154785156 24.81429672241211 156.9423828125 49.28163146972656 169.5580291748047 63.09879684448242 L 198.4043884277344 16.26460266113281 L 198.4043884277344 129.0004119873047 L 169.5580291748047 82.16621398925781 C 155.9087829589844 97.11457824707031 126.3115005493164 124.5311050415039 91.71422576904297 126.0093841552734 C 91.96294403076172 137.2994079589844 91.21250152587891 149.9851379394531 86.58550262451172 150.0001068115234 C 86.58294677734375 150.0001373291016 86.579833984375 150.0001373291016 86.57727813720703 150.0001373291016 Z" stroke="none" fill="#707070"/>
      </g>
      <path id="Path_8" data-name="Path 8" d="M0,0S54.779,34.21,0,81.723" transform="translate(-149.648 609.263)" fill="none" stroke="#707070" stroke-width="3"/>
      <path id="Path_12" data-name="Path 12" d="M146.412,376.723c10.018-10.969,23.7-25.987,23.491-47.012,7.131-3.318,18.905-8.389,34.116-5.654s16.365,8.453,35.149,6.37c10.254-2.607,31.065-6.453,36.165-2.012,3.887,4.871,1.451,14.448-4.838,20.3-16.934,15.729-39.189,40.693-80.555,39.5C173.916,387.57,156.677,382.642,146.412,376.723Z" transform="translate(-294.903 314.021)" fill="#ffe4c5" stroke="#707070" stroke-width="3"/>
    </g>
    <g id="Ellipse_33" data-name="Ellipse 33" transform="matrix(0.966, -0.259, 0.259, 0.966, -218.091, 566.351)" fill="#707070" stroke="#707070" stroke-width="1">
      <ellipse cx="10.685" cy="10.685" rx="10.685" ry="10.685" stroke="none"/>
      <ellipse cx="10.685" cy="10.685" rx="10.185" ry="10.185" fill="none"/>
    </g>
    <g id="Ellipse_34" data-name="Ellipse 34" transform="matrix(0.966, -0.259, 0.259, 0.966, -185.365, 585.351)" fill="#707070" stroke="#707070" stroke-width="1">
      <ellipse cx="10.685" cy="10.685" rx="10.685" ry="10.685" stroke="none"/>
      <ellipse cx="10.685" cy="10.685" rx="10.185" ry="10.185" fill="none"/>
    </g>
    <g id="Ellipse_35" data-name="Ellipse 35" transform="matrix(0.966, -0.259, 0.259, 0.966, -209.089, 588.495)" fill="#707070" stroke="#707070" stroke-width="1">
      <ellipse cx="10.685" cy="10.685" rx="10.685" ry="10.685" stroke="none"/>
      <ellipse cx="10.685" cy="10.685" rx="10.185" ry="10.185" fill="none"/>
    </g>
    <g id="Ellipse_36" data-name="Ellipse 36" transform="matrix(0.966, -0.259, 0.259, 0.966, -231.957, 586.438)" fill="#707070" stroke="#707070" stroke-width="1">
      <ellipse cx="10.685" cy="10.685" rx="10.685" ry="10.685" stroke="none"/>
      <ellipse cx="10.685" cy="10.685" rx="10.185" ry="10.185" fill="none"/>
    </g>
    <circle id="Ellipse_39" data-name="Ellipse 39" cx="8.137" cy="8.137" r="8.137" transform="translate(-252.23 532.37)" fill="#707070"/>
    <g id="Ellipse_38" data-name="Ellipse 38" transform="matrix(0.966, -0.259, 0.259, 0.966, -164.192, 573.351)" fill="#707070" stroke="#707070" stroke-width="1">
      <ellipse cx="10.685" cy="10.685" rx="10.685" ry="10.685" stroke="none"/>
      <ellipse cx="10.685" cy="10.685" rx="10.185" ry="10.185" fill="none"/>
    </g>
    <g id="Ellipse_37" data-name="Ellipse 37" transform="matrix(0.966, -0.259, 0.259, 0.966, -194.832, 564.946)" fill="#707070" stroke="#707070" stroke-width="1">
      <ellipse cx="10.685" cy="10.685" rx="10.685" ry="10.685" stroke="none"/>
      <ellipse cx="10.685" cy="10.685" rx="10.185" ry="10.185" fill="none"/>
    </g>
  </g>
</svg>
